<svg width="225" height="40" viewBox="0 0 225 40" fill="none" xmlns="http://www.w3.org/2000/svg">
<path d="M31.5294 14.2118C31.5294 18.8819 28.7623 22.9082 24.7793 24.7351C26.4612 23.3496 27.5322 21.248 27.5322 18.896C27.5322 14.7642 24.2259 11.4042 20.112 11.3205C20.0574 11.3167 20.0075 11.3167 19.9529 11.3167C19.8983 11.3167 19.8485 11.3167 19.7939 11.3205C18.2673 11.4033 17.0588 12.6663 17.0588 14.2108V28.6814C17.0588 33.4748 13.1699 37.3638 8.37646 37.3638V14.2118C8.37646 7.81928 13.5605 2.63528 19.9529 2.63528C26.3454 2.63528 31.5294 7.81928 31.5294 14.2118Z" fill="black"/>
<path d="M21.9992 16.2582C23.1294 15.128 23.1294 13.2956 21.9992 12.1654C20.8689 11.0351 19.0365 11.0351 17.9063 12.1654C16.7761 13.2956 16.7761 15.128 17.9063 16.2582C19.0365 17.3884 20.8689 17.3884 21.9992 16.2582Z" fill="black"/>
<path d="M62.9858 27V12.4H66.2658V27H62.9858ZM53.5458 27V12.4H56.8258V27H53.5458ZM56.2458 21.1V18.22H63.5658V21.1H56.2458ZM75.5819 27V23.76H75.0419V20.24C75.0419 19.68 74.9085 19.26 74.6419 18.98C74.3752 18.7 73.9485 18.56 73.3619 18.56C73.0685 18.56 72.6819 18.5667 72.2019 18.58C71.7219 18.5933 71.2285 18.6133 70.7219 18.64C70.2152 18.6667 69.7552 18.6933 69.3419 18.72V16.02C69.6485 15.9933 70.0085 15.9667 70.4219 15.94C70.8352 15.9133 71.2619 15.8933 71.7019 15.88C72.1419 15.8667 72.5552 15.86 72.9419 15.86C74.0619 15.86 75.0019 16.02 75.7619 16.34C76.5352 16.66 77.1219 17.1467 77.5219 17.8C77.9219 18.44 78.1219 19.2667 78.1219 20.28V27H75.5819ZM72.0819 27.28C71.2952 27.28 70.6019 27.14 70.0019 26.86C69.4152 26.58 68.9552 26.18 68.6219 25.66C68.2885 25.1267 68.1219 24.4933 68.1219 23.76C68.1219 22.96 68.3285 22.3067 68.7419 21.8C69.1552 21.28 69.7352 20.9 70.4819 20.66C71.2285 20.4067 72.0885 20.28 73.0619 20.28H75.4019V22.06H73.0419C72.4819 22.06 72.0485 22.2 71.7419 22.48C71.4485 22.7467 71.3019 23.1133 71.3019 23.58C71.3019 24.02 71.4485 24.38 71.7419 24.66C72.0485 24.9267 72.4819 25.06 73.0419 25.06C73.4019 25.06 73.7219 25 74.0019 24.88C74.2952 24.7467 74.5352 24.5267 74.7219 24.22C74.9085 23.9133 75.0152 23.4867 75.0419 22.94L75.8019 23.74C75.7352 24.5 75.5485 25.14 75.2419 25.66C74.9485 26.18 74.5352 26.58 74.0019 26.86C73.4819 27.14 72.8419 27.28 72.0819 27.28ZM80.4369 27V16.04H82.9769V20.74H82.7969C82.7969 19.62 82.9369 18.6867 83.2169 17.94C83.5102 17.1933 83.9502 16.6333 84.5369 16.26C85.1235 15.8867 85.8369 15.7 86.6769 15.7H86.8169C88.0969 15.7 89.0702 16.12 89.7369 16.96C90.4169 17.7867 90.7569 19.0467 90.7569 20.74V27H87.5569V20.56C87.5569 19.9733 87.3835 19.4933 87.0369 19.12C86.6902 18.7467 86.2235 18.56 85.6369 18.56C85.0369 18.56 84.5502 18.7533 84.1769 19.14C83.8169 19.5133 83.6369 20.0067 83.6369 20.62V27H80.4369ZM93.0837 27V16.04H95.6237V20.74H95.4437C95.4437 19.62 95.5837 18.6867 95.8637 17.94C96.1571 17.1933 96.5971 16.6333 97.1837 16.26C97.7704 15.8867 98.4837 15.7 99.3237 15.7H99.4637C100.744 15.7 101.717 16.12 102.384 16.96C103.064 17.7867 103.404 19.0467 103.404 20.74V27H100.204V20.56C100.204 19.9733 100.03 19.4933 99.6837 19.12C99.3371 18.7467 98.8704 18.56 98.2837 18.56C97.6837 18.56 97.1971 18.7533 96.8237 19.14C96.4637 19.5133 96.2837 20.0067 96.2837 20.62V27H93.0837ZM112.351 27V23.76H111.811V20.24C111.811 19.68 111.677 19.26 111.411 18.98C111.144 18.7 110.717 18.56 110.131 18.56C109.837 18.56 109.451 18.5667 108.971 18.58C108.491 18.5933 107.997 18.6133 107.491 18.64C106.984 18.6667 106.524 18.6933 106.111 18.72V16.02C106.417 15.9933 106.777 15.9667 107.191 15.94C107.604 15.9133 108.031 15.8933 108.471 15.88C108.911 15.8667 109.324 15.86 109.711 15.86C110.831 15.86 111.771 16.02 112.531 16.34C113.304 16.66 113.891 17.1467 114.291 17.8C114.691 18.44 114.891 19.2667 114.891 20.28V27H112.351ZM108.851 27.28C108.064 27.28 107.371 27.14 106.771 26.86C106.184 26.58 105.724 26.18 105.391 25.66C105.057 25.1267 104.891 24.4933 104.891 23.76C104.891 22.96 105.097 22.3067 105.511 21.8C105.924 21.28 106.504 20.9 107.251 20.66C107.997 20.4067 108.857 20.28 109.831 20.28H112.171V22.06H109.811C109.251 22.06 108.817 22.2 108.511 22.48C108.217 22.7467 108.071 23.1133 108.071 23.58C108.071 24.02 108.217 24.38 108.511 24.66C108.817 24.9267 109.251 25.06 109.811 25.06C110.171 25.06 110.491 25 110.771 24.88C111.064 24.7467 111.304 24.5267 111.491 24.22C111.677 23.9133 111.784 23.4867 111.811 22.94L112.571 23.74C112.504 24.5 112.317 25.14 112.011 25.66C111.717 26.18 111.304 26.58 110.771 26.86C110.251 27.14 109.611 27.28 108.851 27.28ZM121.185 27V12.4H126.565L132.065 24.34H132.745L132.345 24.7V12.4H135.425V27H130.005L124.505 15.06H123.825L124.225 14.7V27H121.185ZM143.144 27.38C142.211 27.38 141.384 27.22 140.664 26.9C139.958 26.58 139.364 26.1533 138.884 25.62C138.418 25.0733 138.058 24.4667 137.804 23.8C137.564 23.12 137.444 22.4267 137.444 21.72V21.32C137.444 20.5867 137.564 19.8867 137.804 19.22C138.058 18.54 138.418 17.9333 138.884 17.4C139.351 16.8667 139.931 16.4467 140.624 16.14C141.331 15.82 142.131 15.66 143.024 15.66C144.198 15.66 145.184 15.9267 145.984 16.46C146.798 16.98 147.418 17.6667 147.844 18.52C148.271 19.36 148.484 20.28 148.484 21.28V22.36H138.784V20.54H146.544L145.504 21.38C145.504 20.7267 145.411 20.1667 145.224 19.7C145.038 19.2333 144.758 18.88 144.384 18.64C144.024 18.3867 143.571 18.26 143.024 18.26C142.464 18.26 141.991 18.3867 141.604 18.64C141.218 18.8933 140.924 19.2667 140.724 19.76C140.524 20.24 140.424 20.8333 140.424 21.54C140.424 22.1933 140.518 22.7667 140.704 23.26C140.891 23.74 141.184 24.1133 141.584 24.38C141.984 24.6467 142.504 24.78 143.144 24.78C143.731 24.78 144.211 24.6667 144.584 24.44C144.958 24.2133 145.211 23.9333 145.344 23.6H148.284C148.124 24.3333 147.811 24.9867 147.344 25.56C146.878 26.1333 146.291 26.58 145.584 26.9C144.878 27.22 144.064 27.38 143.144 27.38ZM154.365 27.34C152.805 27.34 151.585 27.02 150.705 26.38C149.825 25.74 149.358 24.84 149.305 23.68H152.145C152.198 24.0267 152.405 24.34 152.765 24.62C153.138 24.8867 153.691 25.02 154.425 25.02C154.985 25.02 155.445 24.9267 155.805 24.74C156.178 24.54 156.365 24.26 156.365 23.9C156.365 23.58 156.225 23.3267 155.945 23.14C155.665 22.94 155.165 22.8 154.445 22.72L153.585 22.64C152.265 22.5067 151.271 22.14 150.605 21.54C149.951 20.94 149.625 20.1733 149.625 19.24C149.625 18.4667 149.818 17.82 150.205 17.3C150.591 16.78 151.125 16.3867 151.805 16.12C152.498 15.8533 153.285 15.72 154.165 15.72C155.578 15.72 156.718 16.0333 157.585 16.66C158.451 17.2733 158.905 18.1667 158.945 19.34H156.105C156.051 18.98 155.865 18.68 155.545 18.44C155.225 18.1867 154.751 18.06 154.125 18.06C153.631 18.06 153.238 18.1533 152.945 18.34C152.651 18.5267 152.505 18.78 152.505 19.1C152.505 19.4067 152.631 19.64 152.885 19.8C153.138 19.96 153.551 20.0733 154.125 20.14L154.985 20.22C156.331 20.3667 157.378 20.74 158.125 21.34C158.871 21.94 159.245 22.7467 159.245 23.76C159.245 24.4933 159.045 25.1333 158.645 25.68C158.245 26.2133 157.678 26.6267 156.945 26.92C156.211 27.2 155.351 27.34 154.365 27.34ZM165.898 27.14C164.791 27.14 163.898 27.0067 163.218 26.74C162.538 26.46 162.038 26 161.718 25.36C161.411 24.7067 161.258 23.8267 161.258 22.72V13.08H164.238V22.84C164.238 23.36 164.371 23.76 164.638 24.04C164.918 24.3067 165.311 24.44 165.818 24.44H167.438V27.14H165.898ZM159.598 18.38V16.04H167.438V18.38H159.598ZM174.171 27.38C173.238 27.38 172.411 27.22 171.691 26.9C170.984 26.58 170.391 26.1533 169.911 25.62C169.444 25.0733 169.084 24.4667 168.831 23.8C168.591 23.12 168.471 22.4267 168.471 21.72V21.32C168.471 20.5867 168.591 19.8867 168.831 19.22C169.084 18.54 169.444 17.9333 169.911 17.4C170.378 16.8667 170.958 16.4467 171.651 16.14C172.358 15.82 173.158 15.66 174.051 15.66C175.224 15.66 176.211 15.9267 177.011 16.46C177.824 16.98 178.444 17.6667 178.871 18.52C179.298 19.36 179.511 20.28 179.511 21.28V22.36H169.811V20.54H177.571L176.531 21.38C176.531 20.7267 176.438 20.1667 176.251 19.7C176.064 19.2333 175.784 18.88 175.411 18.64C175.051 18.3867 174.598 18.26 174.051 18.26C173.491 18.26 173.018 18.3867 172.631 18.64C172.244 18.8933 171.951 19.2667 171.751 19.76C171.551 20.24 171.451 20.8333 171.451 21.54C171.451 22.1933 171.544 22.7667 171.731 23.26C171.918 23.74 172.211 24.1133 172.611 24.38C173.011 24.6467 173.531 24.78 174.171 24.78C174.758 24.78 175.238 24.6667 175.611 24.44C175.984 24.2133 176.238 23.9333 176.371 23.6H179.311C179.151 24.3333 178.838 24.9867 178.371 25.56C177.904 26.1333 177.318 26.58 176.611 26.9C175.904 27.22 175.091 27.38 174.171 27.38ZM181.231 27V16.04H183.771V20.74H183.711C183.711 19.1933 184.038 18 184.691 17.16C185.358 16.32 186.318 15.9 187.571 15.9H187.991V18.66H187.191C186.311 18.66 185.631 18.9 185.151 19.38C184.671 19.8467 184.431 20.5267 184.431 21.42V27H181.231ZM194.531 27.38C193.571 27.38 192.717 27.2333 191.971 26.94C191.224 26.6333 190.591 26.22 190.071 25.7C189.564 25.18 189.177 24.5867 188.911 23.92C188.644 23.24 188.511 22.5267 188.511 21.78V21.32C188.511 20.56 188.644 19.84 188.911 19.16C189.191 18.4667 189.591 17.86 190.111 17.34C190.644 16.82 191.284 16.4133 192.031 16.12C192.777 15.8133 193.611 15.66 194.531 15.66C195.477 15.66 196.317 15.8133 197.051 16.12C197.797 16.4133 198.431 16.82 198.951 17.34C199.471 17.86 199.871 18.4667 200.151 19.16C200.431 19.84 200.571 20.56 200.571 21.32V21.78C200.571 22.5267 200.437 23.24 200.171 23.92C199.904 24.5867 199.511 25.18 198.991 25.7C198.484 26.22 197.857 26.6333 197.111 26.94C196.364 27.2333 195.504 27.38 194.531 27.38ZM194.531 24.68C195.157 24.68 195.677 24.5467 196.091 24.28C196.504 24.0133 196.817 23.64 197.031 23.16C197.257 22.68 197.371 22.1467 197.371 21.56C197.371 20.9333 197.257 20.3867 197.031 19.92C196.804 19.44 196.477 19.06 196.051 18.78C195.637 18.5 195.131 18.36 194.531 18.36C193.944 18.36 193.437 18.5 193.011 18.78C192.584 19.06 192.257 19.44 192.031 19.92C191.817 20.3867 191.711 20.9333 191.711 21.56C191.711 22.1467 191.817 22.68 192.031 23.16C192.244 23.64 192.564 24.0133 192.991 24.28C193.417 24.5467 193.931 24.68 194.531 24.68ZM204.27 27L200.99 16.04H204.29L207.37 27H204.27ZM205.27 27V24.34H208.49V27H205.27ZM206.45 27L209.11 16.04H212.19L209.35 27H206.45ZM220.128 27V23.76H219.588V20.24C219.588 19.68 219.455 19.26 219.188 18.98C218.921 18.7 218.495 18.56 217.908 18.56C217.615 18.56 217.228 18.5667 216.748 18.58C216.268 18.5933 215.775 18.6133 215.268 18.64C214.761 18.6667 214.301 18.6933 213.888 18.72V16.02C214.195 15.9933 214.555 15.9667 214.968 15.94C215.381 15.9133 215.808 15.8933 216.248 15.88C216.688 15.8667 217.101 15.86 217.488 15.86C218.608 15.86 219.548 16.02 220.308 16.34C221.081 16.66 221.668 17.1467 222.068 17.8C222.468 18.44 222.668 19.2667 222.668 20.28V27H220.128ZM216.628 27.28C215.841 27.28 215.148 27.14 214.548 26.86C213.961 26.58 213.501 26.18 213.168 25.66C212.835 25.1267 212.668 24.4933 212.668 23.76C212.668 22.96 212.875 22.3067 213.288 21.8C213.701 21.28 214.281 20.9 215.028 20.66C215.775 20.4067 216.635 20.28 217.608 20.28H219.948V22.06H217.588C217.028 22.06 216.595 22.2 216.288 22.48C215.995 22.7467 215.848 23.1133 215.848 23.58C215.848 24.02 215.995 24.38 216.288 24.66C216.595 24.9267 217.028 25.06 217.588 25.06C217.948 25.06 218.268 25 218.548 24.88C218.841 24.7467 219.081 24.5267 219.268 24.22C219.455 23.9133 219.561 23.4867 219.588 22.94L220.348 23.74C220.281 24.5 220.095 25.14 219.788 25.66C219.495 26.18 219.081 26.58 218.548 26.86C218.028 27.14 217.388 27.28 216.628 27.28Z" fill="black"/>
</svg>
